<svg width="189" height="40" viewBox="0 0 189 40" fill="none" xmlns="http://www.w3.org/2000/svg">
<rect width="40" height="40" rx="3.96" fill="#593A9E"/>
<g clip-path="url(#clip0_7418_54)">
<path d="M9.6333 27.045V9.47457C9.6333 7.36325 11.3435 5.65308 13.4548 5.65308H26.5408C28.6521 5.65308 30.3623 7.36325 30.3623 9.47457V21.8807C30.3623 23.992 28.6521 25.7022 26.5408 25.7022H15.2663C13.6237 25.7022 12.0487 26.3694 10.9085 27.556L9.7642 28.865C9.7642 28.865 9.63752 27.708 9.63752 27.0408L9.6333 27.045Z" stroke="white" stroke-width="1.26679" stroke-linecap="round" stroke-linejoin="round"/>
<path d="M17.4495 30.8031L15.6338 29.6165L13.4802 30.8031V25.9766H17.4495V30.8031Z" fill="white"/>
<path d="M9.6333 27.0449V28.5355C9.6333 31.352 12.2725 33.6365 15.5239 33.6365H18.978C22.2337 33.6365 24.8686 31.352 24.8686 28.5355L20.9584 28.7044" stroke="white" stroke-width="1.26679" stroke-linecap="round" stroke-linejoin="round"/>
<path d="M12.8596 18.1016V11.5734C12.8596 10.2939 13.8984 9.25513 15.1779 9.25513H22.5844" stroke="white" stroke-width="1.26679" stroke-linecap="round" stroke-linejoin="round"/>
</g>
<path d="M52.66 24.36H57.14V27H49.24V12.96H52.66V24.36ZM69.2912 21.24C69.2912 21.56 69.2713 21.8933 69.2313 22.24H61.4913C61.5446 22.9333 61.7646 23.4667 62.1513 23.84C62.5513 24.2 63.0379 24.38 63.6113 24.38C64.4646 24.38 65.0579 24.02 65.3913 23.3H69.0313C68.8446 24.0333 68.5046 24.6933 68.0113 25.28C67.5313 25.8667 66.9246 26.3267 66.1913 26.66C65.4579 26.9933 64.6379 27.16 63.7313 27.16C62.6379 27.16 61.6646 26.9267 60.8113 26.46C59.9579 25.9933 59.2913 25.3267 58.8113 24.46C58.3313 23.5933 58.0913 22.58 58.0913 21.42C58.0913 20.26 58.3246 19.2467 58.7913 18.38C59.2713 17.5133 59.9379 16.8467 60.7913 16.38C61.6446 15.9133 62.6246 15.68 63.7313 15.68C64.8113 15.68 65.7713 15.9067 66.6113 16.36C67.4513 16.8133 68.1046 17.46 68.5713 18.3C69.0513 19.14 69.2912 20.12 69.2912 21.24ZM65.7913 20.34C65.7913 19.7533 65.5913 19.2867 65.1913 18.94C64.7913 18.5933 64.2913 18.42 63.6913 18.42C63.1179 18.42 62.6313 18.5867 62.2313 18.92C61.8446 19.2533 61.6046 19.7267 61.5113 20.34H65.7913ZM70.4155 21.4C70.4155 20.2533 70.6288 19.2467 71.0555 18.38C71.4955 17.5133 72.0888 16.8467 72.8355 16.38C73.5821 15.9133 74.4155 15.68 75.3355 15.68C76.1221 15.68 76.8088 15.84 77.3955 16.16C77.9955 16.48 78.4555 16.9 78.7755 17.42V15.84H82.1955V27H78.7755V25.42C78.4421 25.94 77.9755 26.36 77.3755 26.68C76.7888 27 76.1021 27.16 75.3155 27.16C74.4088 27.16 73.5821 26.9267 72.8355 26.46C72.0888 25.98 71.4955 25.3067 71.0555 24.44C70.6288 23.56 70.4155 22.5467 70.4155 21.4ZM78.7755 21.42C78.7755 20.5667 78.5355 19.8933 78.0555 19.4C77.5888 18.9067 77.0155 18.66 76.3355 18.66C75.6555 18.66 75.0755 18.9067 74.5955 19.4C74.1288 19.88 73.8955 20.5467 73.8955 21.4C73.8955 22.2533 74.1288 22.9333 74.5955 23.44C75.0755 23.9333 75.6555 24.18 76.3355 24.18C77.0155 24.18 77.5888 23.9333 78.0555 23.44C78.5355 22.9467 78.7755 22.2733 78.7755 21.42ZM88.0897 17.7C88.4897 17.0867 88.9897 16.6067 89.5897 16.26C90.1897 15.9 90.8564 15.72 91.5897 15.72V19.34H90.6497C89.7964 19.34 89.1564 19.5267 88.7297 19.9C88.303 20.26 88.0897 20.9 88.0897 21.82V27H84.6697V15.84H88.0897V17.7ZM100.024 15.72C101.331 15.72 102.371 16.1467 103.144 17C103.931 17.84 104.324 19 104.324 20.48V27H100.924V20.94C100.924 20.1933 100.731 19.6133 100.344 19.2C99.9577 18.7867 99.4377 18.58 98.7844 18.58C98.131 18.58 97.611 18.7867 97.2244 19.2C96.8377 19.6133 96.6444 20.1933 96.6444 20.94V27H93.2244V15.84H96.6444V17.32C96.991 16.8267 97.4577 16.44 98.0444 16.16C98.631 15.8667 99.291 15.72 100.024 15.72ZM117.221 21.24C117.221 21.56 117.201 21.8933 117.161 22.24H109.421C109.474 22.9333 109.694 23.4667 110.081 23.84C110.481 24.2 110.968 24.38 111.541 24.38C112.394 24.38 112.988 24.02 113.321 23.3H116.961C116.774 24.0333 116.434 24.6933 115.941 25.28C115.461 25.8667 114.854 26.3267 114.121 26.66C113.388 26.9933 112.568 27.16 111.661 27.16C110.568 27.16 109.594 26.9267 108.741 26.46C107.888 25.9933 107.221 25.3267 106.741 24.46C106.261 23.5933 106.021 22.58 106.021 21.42C106.021 20.26 106.254 19.2467 106.721 18.38C107.201 17.5133 107.868 16.8467 108.721 16.38C109.574 15.9133 110.554 15.68 111.661 15.68C112.741 15.68 113.701 15.9067 114.541 16.36C115.381 16.8133 116.034 17.46 116.501 18.3C116.981 19.14 117.221 20.12 117.221 21.24ZM113.721 20.34C113.721 19.7533 113.521 19.2867 113.121 18.94C112.721 18.5933 112.221 18.42 111.621 18.42C111.048 18.42 110.561 18.5867 110.161 18.92C109.774 19.2533 109.534 19.7267 109.441 20.34H113.721ZM122.445 17.7C122.845 17.0867 123.345 16.6067 123.945 16.26C124.545 15.9 125.212 15.72 125.945 15.72V19.34H125.005C124.152 19.34 123.512 19.5267 123.085 19.9C122.658 20.26 122.445 20.9 122.445 21.82V27H119.025V15.84H122.445V17.7ZM132.12 27.16C131.147 27.16 130.28 26.9933 129.52 26.66C128.76 26.3267 128.16 25.8733 127.72 25.3C127.28 24.7133 127.033 24.06 126.98 23.34H130.36C130.4 23.7267 130.58 24.04 130.9 24.28C131.22 24.52 131.613 24.64 132.08 24.64C132.507 24.64 132.833 24.56 133.06 24.4C133.3 24.2267 133.42 24.0067 133.42 23.74C133.42 23.42 133.253 23.1867 132.92 23.04C132.587 22.88 132.047 22.7067 131.3 22.52C130.5 22.3333 129.833 22.14 129.3 21.94C128.767 21.7267 128.307 21.4 127.92 20.96C127.533 20.5067 127.34 19.9 127.34 19.14C127.34 18.5 127.513 17.92 127.86 17.4C128.22 16.8667 128.74 16.4467 129.42 16.14C130.113 15.8333 130.933 15.68 131.88 15.68C133.28 15.68 134.38 16.0267 135.18 16.72C135.993 17.4133 136.46 18.3333 136.58 19.48H133.42C133.367 19.0933 133.193 18.7867 132.9 18.56C132.62 18.3333 132.247 18.22 131.78 18.22C131.38 18.22 131.073 18.3 130.86 18.46C130.647 18.6067 130.54 18.8133 130.54 19.08C130.54 19.4 130.707 19.64 131.04 19.8C131.387 19.96 131.92 20.12 132.64 20.28C133.467 20.4933 134.14 20.7067 134.66 20.92C135.18 21.12 135.633 21.4533 136.02 21.92C136.42 22.3733 136.627 22.9867 136.64 23.76C136.64 24.4133 136.453 25 136.08 25.52C135.72 26.0267 135.193 26.4267 134.5 26.72C133.82 27.0133 133.027 27.16 132.12 27.16ZM147.872 12.96V15.7H142.152V18.66H146.432V21.32H142.152V27H138.732V12.96H147.872ZM160.69 15.84V27H157.27V25.48C156.923 25.9733 156.45 26.3733 155.85 26.68C155.263 26.9733 154.61 27.12 153.89 27.12C153.036 27.12 152.283 26.9333 151.63 26.56C150.976 26.1733 150.47 25.62 150.11 24.9C149.75 24.18 149.57 23.3333 149.57 22.36V15.84H152.97V21.9C152.97 22.6467 153.163 23.2267 153.55 23.64C153.936 24.0533 154.456 24.26 155.11 24.26C155.776 24.26 156.303 24.0533 156.69 23.64C157.076 23.2267 157.27 22.6467 157.27 21.9V15.84H160.69ZM169.946 15.72C171.253 15.72 172.293 16.1467 173.066 17C173.853 17.84 174.246 19 174.246 20.48V27H170.846V20.94C170.846 20.1933 170.653 19.6133 170.266 19.2C169.88 18.7867 169.36 18.58 168.706 18.58C168.053 18.58 167.533 18.7867 167.146 19.2C166.76 19.6133 166.566 20.1933 166.566 20.94V27H163.146V15.84H166.566V17.32C166.913 16.8267 167.38 16.44 167.966 16.16C168.553 15.8667 169.213 15.72 169.946 15.72ZM175.943 21.4C175.943 20.2533 176.156 19.2467 176.583 18.38C177.023 17.5133 177.616 16.8467 178.363 16.38C179.109 15.9133 179.943 15.68 180.863 15.68C181.596 15.68 182.263 15.8333 182.863 16.14C183.476 16.4467 183.956 16.86 184.303 17.38V12.2H187.723V27H184.303V25.4C183.983 25.9333 183.523 26.36 182.923 26.68C182.336 27 181.649 27.16 180.863 27.16C179.943 27.16 179.109 26.9267 178.363 26.46C177.616 25.98 177.023 25.3067 176.583 24.44C176.156 23.56 175.943 22.5467 175.943 21.4ZM184.303 21.42C184.303 20.5667 184.063 19.8933 183.583 19.4C183.116 18.9067 182.543 18.66 181.863 18.66C181.183 18.66 180.603 18.9067 180.123 19.4C179.656 19.88 179.423 20.5467 179.423 21.4C179.423 22.2533 179.656 22.9333 180.123 23.44C180.603 23.9333 181.183 24.18 181.863 24.18C182.543 24.18 183.116 23.9333 183.583 23.44C184.063 22.9467 184.303 22.2733 184.303 21.42Z" fill="#593A9E"/>
<defs>
<clipPath id="clip0_7418_54">
<rect width="22" height="29.2503" fill="white" transform="translate(9 5.01978)"/>
</clipPath>
</defs>
</svg>
