<svg width="276" height="128" viewBox="0 0 276 128" fill="none" xmlns="http://www.w3.org/2000/svg">
<g filter="url(#filter0_d_7401_1685)">
<rect x="43" y="40.5" width="190" height="43" rx="8.5" stroke="black" stroke-opacity="0.1" shape-rendering="crispEdges"/>
<path d="M66.5904 66.668H70.9824V68H64.9524V55.454H66.5904V66.668ZM81.7219 62.69C81.7219 63.002 81.7039 63.332 81.6679 63.68H73.7839C73.8439 64.652 74.1739 65.414 74.7739 65.966C75.3859 66.506 76.1239 66.776 76.9879 66.776C77.6959 66.776 78.2839 66.614 78.7519 66.29C79.2319 65.954 79.5679 65.51 79.7599 64.958H81.5239C81.2599 65.906 80.7319 66.68 79.9399 67.28C79.1479 67.868 78.1639 68.162 76.9879 68.162C76.0519 68.162 75.2119 67.952 74.4679 67.532C73.7359 67.112 73.1599 66.518 72.7399 65.75C72.3199 64.97 72.1099 64.07 72.1099 63.05C72.1099 62.03 72.3139 61.136 72.7219 60.368C73.1299 59.6 73.6999 59.012 74.4319 58.604C75.1759 58.184 76.0279 57.974 76.9879 57.974C77.9239 57.974 78.7519 58.178 79.4719 58.586C80.1919 58.994 80.7439 59.558 81.1279 60.278C81.5239 60.986 81.7219 61.79 81.7219 62.69ZM80.0299 62.348C80.0299 61.724 79.8919 61.19 79.6159 60.746C79.3399 60.29 78.9619 59.948 78.4819 59.72C78.0139 59.48 77.4919 59.36 76.9159 59.36C76.0879 59.36 75.3799 59.624 74.7919 60.152C74.2159 60.68 73.8859 61.412 73.8019 62.348H80.0299ZM83.272 63.032C83.272 62.024 83.476 61.142 83.884 60.386C84.292 59.618 84.85 59.024 85.558 58.604C86.278 58.184 87.076 57.974 87.952 57.974C88.816 57.974 89.566 58.16 90.202 58.532C90.838 58.904 91.312 59.372 91.624 59.936V58.136H93.28V68H91.624V66.164C91.3 66.74 90.814 67.22 90.166 67.604C89.53 67.976 88.786 68.162 87.934 68.162C87.058 68.162 86.266 67.946 85.558 67.514C84.85 67.082 84.292 66.476 83.884 65.696C83.476 64.916 83.272 64.028 83.272 63.032ZM91.624 63.05C91.624 62.306 91.474 61.658 91.174 61.106C90.874 60.554 90.466 60.134 89.95 59.846C89.446 59.546 88.888 59.396 88.276 59.396C87.664 59.396 87.106 59.54 86.602 59.828C86.098 60.116 85.696 60.536 85.396 61.088C85.096 61.64 84.946 62.288 84.946 63.032C84.946 63.788 85.096 64.448 85.396 65.012C85.696 65.564 86.098 65.99 86.602 66.29C87.106 66.578 87.664 66.722 88.276 66.722C88.888 66.722 89.446 66.578 89.95 66.29C90.466 65.99 90.874 65.564 91.174 65.012C91.474 64.448 91.624 63.794 91.624 63.05ZM97.6861 59.738C97.9741 59.174 98.3821 58.736 98.9101 58.424C99.4501 58.112 100.104 57.956 100.872 57.956V59.648H100.44C98.6041 59.648 97.6861 60.644 97.6861 62.636V68H96.0481V58.136H97.6861V59.738ZM107.569 57.956C108.769 57.956 109.741 58.322 110.485 59.054C111.229 59.774 111.601 60.818 111.601 62.186V68H109.981V62.42C109.981 61.436 109.735 60.686 109.243 60.17C108.751 59.642 108.079 59.378 107.227 59.378C106.363 59.378 105.673 59.648 105.157 60.188C104.653 60.728 104.401 61.514 104.401 62.546V68H102.763V58.136H104.401V59.54C104.725 59.036 105.163 58.646 105.715 58.37C106.279 58.094 106.897 57.956 107.569 57.956ZM123.277 62.69C123.277 63.002 123.259 63.332 123.223 63.68H115.339C115.399 64.652 115.729 65.414 116.329 65.966C116.941 66.506 117.679 66.776 118.543 66.776C119.251 66.776 119.839 66.614 120.307 66.29C120.787 65.954 121.123 65.51 121.315 64.958H123.079C122.815 65.906 122.287 66.68 121.495 67.28C120.703 67.868 119.719 68.162 118.543 68.162C117.607 68.162 116.767 67.952 116.023 67.532C115.291 67.112 114.715 66.518 114.295 65.75C113.875 64.97 113.665 64.07 113.665 63.05C113.665 62.03 113.869 61.136 114.277 60.368C114.685 59.6 115.255 59.012 115.987 58.604C116.731 58.184 117.583 57.974 118.543 57.974C119.479 57.974 120.307 58.178 121.027 58.586C121.747 58.994 122.299 59.558 122.683 60.278C123.079 60.986 123.277 61.79 123.277 62.69ZM121.585 62.348C121.585 61.724 121.447 61.19 121.171 60.746C120.895 60.29 120.517 59.948 120.037 59.72C119.569 59.48 119.047 59.36 118.471 59.36C117.643 59.36 116.935 59.624 116.347 60.152C115.771 60.68 115.441 61.412 115.357 62.348H121.585ZM127.077 59.738C127.365 59.174 127.773 58.736 128.301 58.424C128.841 58.112 129.495 57.956 130.263 57.956V59.648H129.831C127.995 59.648 127.077 60.644 127.077 62.636V68H125.439V58.136H127.077V59.738ZM135.646 68.162C134.89 68.162 134.212 68.036 133.612 67.784C133.012 67.52 132.538 67.16 132.19 66.704C131.842 66.236 131.65 65.702 131.614 65.102H133.306C133.354 65.594 133.582 65.996 133.99 66.308C134.41 66.62 134.956 66.776 135.628 66.776C136.252 66.776 136.744 66.638 137.104 66.362C137.464 66.086 137.644 65.738 137.644 65.318C137.644 64.886 137.452 64.568 137.068 64.364C136.684 64.148 136.09 63.938 135.286 63.734C134.554 63.542 133.954 63.35 133.486 63.158C133.03 62.954 132.634 62.66 132.298 62.276C131.974 61.88 131.812 61.364 131.812 60.728C131.812 60.224 131.962 59.762 132.262 59.342C132.562 58.922 132.988 58.592 133.54 58.352C134.092 58.1 134.722 57.974 135.43 57.974C136.522 57.974 137.404 58.25 138.076 58.802C138.748 59.354 139.108 60.11 139.156 61.07H137.518C137.482 60.554 137.272 60.14 136.888 59.828C136.516 59.516 136.012 59.36 135.376 59.36C134.788 59.36 134.32 59.486 133.972 59.738C133.624 59.99 133.45 60.32 133.45 60.728C133.45 61.052 133.552 61.322 133.756 61.538C133.972 61.742 134.236 61.91 134.548 62.042C134.872 62.162 135.316 62.3 135.88 62.456C136.588 62.648 137.164 62.84 137.608 63.032C138.052 63.212 138.43 63.488 138.742 63.86C139.066 64.232 139.234 64.718 139.246 65.318C139.246 65.858 139.096 66.344 138.796 66.776C138.496 67.208 138.07 67.55 137.518 67.802C136.978 68.042 136.354 68.162 135.646 68.162ZM148.65 55.454V56.786H143.196V61.016H147.624V62.348H143.196V68H141.558V55.454H148.65ZM159.376 58.136V68H157.738V66.542C157.426 67.046 156.988 67.442 156.424 67.73C155.872 68.006 155.26 68.144 154.588 68.144C153.82 68.144 153.13 67.988 152.518 67.676C151.906 67.352 151.42 66.872 151.06 66.236C150.712 65.6 150.538 64.826 150.538 63.914V58.136H152.158V63.698C152.158 64.67 152.404 65.42 152.896 65.948C153.388 66.464 154.06 66.722 154.912 66.722C155.788 66.722 156.478 66.452 156.982 65.912C157.486 65.372 157.738 64.586 157.738 63.554V58.136H159.376ZM166.948 57.956C168.148 57.956 169.12 58.322 169.864 59.054C170.608 59.774 170.98 60.818 170.98 62.186V68H169.36V62.42C169.36 61.436 169.114 60.686 168.622 60.17C168.13 59.642 167.458 59.378 166.606 59.378C165.742 59.378 165.052 59.648 164.536 60.188C164.032 60.728 163.78 61.514 163.78 62.546V68H162.142V58.136H163.78V59.54C164.104 59.036 164.542 58.646 165.094 58.37C165.658 58.094 166.276 57.956 166.948 57.956ZM173.044 63.032C173.044 62.024 173.248 61.142 173.656 60.386C174.064 59.618 174.622 59.024 175.33 58.604C176.05 58.184 176.854 57.974 177.742 57.974C178.51 57.974 179.224 58.154 179.884 58.514C180.544 58.862 181.048 59.324 181.396 59.9V54.68H183.052V68H181.396V66.146C181.072 66.734 180.592 67.22 179.956 67.604C179.32 67.976 178.576 68.162 177.724 68.162C176.848 68.162 176.05 67.946 175.33 67.514C174.622 67.082 174.064 66.476 173.656 65.696C173.248 64.916 173.044 64.028 173.044 63.032ZM181.396 63.05C181.396 62.306 181.246 61.658 180.946 61.106C180.646 60.554 180.238 60.134 179.722 59.846C179.218 59.546 178.66 59.396 178.048 59.396C177.436 59.396 176.878 59.54 176.374 59.828C175.87 60.116 175.468 60.536 175.168 61.088C174.868 61.64 174.718 62.288 174.718 63.032C174.718 63.788 174.868 64.448 175.168 65.012C175.468 65.564 175.87 65.99 176.374 66.29C176.878 66.578 177.436 66.722 178.048 66.722C178.66 66.722 179.218 66.578 179.722 66.29C180.238 65.99 180.646 65.564 180.946 65.012C181.246 64.448 181.396 63.794 181.396 63.05Z" fill="#0C0814"/>
<path d="M204.25 61.8126C204.108 61.8126 203.965 61.7601 203.853 61.6476C203.635 61.4301 203.635 61.0701 203.853 60.8526L210.003 54.7026C210.22 54.4851 210.58 54.4851 210.798 54.7026C211.015 54.9201 211.015 55.2801 210.798 55.4976L204.648 61.6476C204.535 61.7601 204.393 61.8126 204.25 61.8126Z" fill="#0C0814"/>
<path d="M211 58.6625C210.692 58.6625 210.437 58.4075 210.437 58.1V55.0625H207.4C207.092 55.0625 206.837 54.8075 206.837 54.5C206.837 54.1925 207.092 53.9375 207.4 53.9375H211C211.307 53.9375 211.562 54.1925 211.562 54.5V58.1C211.562 58.4075 211.307 58.6625 211 58.6625Z" fill="#0C0814"/>
<path d="M205.75 70.0625H201.25C197.178 70.0625 195.438 68.3225 195.438 64.25V59.75C195.438 55.6775 197.178 53.9375 201.25 53.9375H202.75C203.057 53.9375 203.312 54.1925 203.312 54.5C203.312 54.8075 203.057 55.0625 202.75 55.0625H201.25C197.793 55.0625 196.562 56.2925 196.562 59.75V64.25C196.562 67.7075 197.793 68.9375 201.25 68.9375H205.75C209.208 68.9375 210.438 67.7075 210.438 64.25V62.75C210.438 62.4425 210.693 62.1875 211 62.1875C211.307 62.1875 211.562 62.4425 211.562 62.75V64.25C211.562 68.3225 209.823 70.0625 205.75 70.0625Z" fill="#0C0814"/>
</g>
<defs>
<filter id="filter0_d_7401_1685" x="0.5" y="0" width="275" height="128" filterUnits="userSpaceOnUse" color-interpolation-filters="sRGB">
<feFlood flood-opacity="0" result="BackgroundImageFix"/>
<feColorMatrix in="SourceAlpha" type="matrix" values="0 0 0 0 0 0 0 0 0 0 0 0 0 0 0 0 0 0 127 0" result="hardAlpha"/>
<feOffset dy="2"/>
<feGaussianBlur stdDeviation="21"/>
<feComposite in2="hardAlpha" operator="out"/>
<feColorMatrix type="matrix" values="0 0 0 0 0 0 0 0 0 0 0 0 0 0 0 0 0 0 0.25 0"/>
<feBlend mode="normal" in2="BackgroundImageFix" result="effect1_dropShadow_7401_1685"/>
<feBlend mode="normal" in="SourceGraphic" in2="effect1_dropShadow_7401_1685" result="shape"/>
</filter>
</defs>
</svg>
