<svg width="22" height="30" viewBox="0 0 22 30" fill="none" xmlns="http://www.w3.org/2000/svg">
<g clip-path="url(#clip0_7418_127)">
<path d="M0.633301 22.775V5.20455C0.633301 3.09323 2.34347 1.38306 4.4548 1.38306H17.5408C19.6521 1.38306 21.3623 3.09323 21.3623 5.20455V17.6107C21.3623 19.722 19.6521 21.4322 17.5408 21.4322H6.26631C4.6237 21.4322 3.04866 22.0994 1.90854 23.2859L0.764203 24.595C0.764203 24.595 0.637523 23.438 0.637523 22.7708L0.633301 22.775Z" stroke="white" stroke-width="1.26679" stroke-linecap="round" stroke-linejoin="round"/>
<path d="M8.44927 26.5332L6.63353 25.3466L4.47998 26.5332V21.7067H8.44927V26.5332Z" fill="white"/>
<path d="M0.633301 22.775V24.2656C0.633301 27.0821 3.27246 29.3666 6.5239 29.3666H9.97802C13.2337 29.3666 15.8686 27.0821 15.8686 24.2656L11.9584 24.4345" stroke="white" stroke-width="1.26679" stroke-linecap="round" stroke-linejoin="round"/>
<path d="M3.85938 13.8314V7.30322C3.85938 6.02376 4.89815 4.98499 6.17761 4.98499H13.5841" stroke="white" stroke-width="1.26679" stroke-linecap="round" stroke-linejoin="round"/>
</g>
<defs>
<clipPath id="clip0_7418_127">
<rect width="22" height="29.2503" fill="white" transform="translate(0 0.749756)"/>
</clipPath>
</defs>
</svg>
